<?xml version="1.0" encoding="UTF-8"?>
<svg version="1.1" xmlns="http://www.w3.org/2000/svg" width="200" height="200">
<path d="M0 0 C0.66 0 1.32 0 2 0 C2.21147077 0.53171468 2.42294153 1.06342936 2.6408205 1.6112566 C7.84245087 14.68982579 13.0453503 27.76788953 18.24957752 40.84542561 C20.76651094 47.1702316 23.28305047 53.49519372 25.79858398 59.82055664 C28.23554003 65.94833132 30.67369781 72.07562709 33.11252403 78.2026577 C34.03325251 80.51632693 34.95360761 82.83014479 35.87354469 85.1441288 C36.75157442 87.35256308 37.63021494 89.56075461 38.5094862 91.76869488 C39.36505156 93.91810722 40.21881417 96.0682381 41.07067585 98.21912098 C43.107243 103.34247457 45.17584459 108.44742842 47.33643681 113.51995569 C48.12712347 115.37703215 48.91146155 117.23667605 49.6943388 119.09705639 C50.68565178 121.44441128 51.69025402 123.78621281 52.71011829 126.12130451 C55.60223718 133.00396781 56.52888505 137.12261446 54.25454712 144.37811279 C53.96381317 145.08188049 53.67307922 145.78564819 53.37353516 146.51074219 C53.04294098 147.32138123 52.7123468 148.13202026 52.37173462 148.96722412 C51.83581192 150.24415131 51.83581192 150.24415131 51.2890625 151.546875 C50.9202597 152.43989319 50.55145691 153.33291138 50.17147827 154.25299072 C49.39367727 156.13043291 48.61183195 158.00620413 47.82617188 159.88037109 C46.62493886 162.75014607 45.44058488 165.62648115 44.2578125 168.50390625 C43.4983947 170.33114462 42.73801121 172.15798201 41.9765625 173.984375 C41.62332916 174.84375671 41.27009583 175.70313843 40.90615845 176.58856201 C40.56925995 177.38659241 40.23236145 178.1846228 39.88525391 179.00683594 C39.59292877 179.70742126 39.30060364 180.40800659 38.99942017 181.12982178 C37.92067052 183.14844635 36.68972276 184.47133647 35 186 C29.71060213 174.88275487 24.97928539 163.55082105 20.25 152.1875 C19.44889108 150.2682909 18.64753877 148.34918337 17.84594727 146.43017578 C14.43194341 138.25355123 11.02750878 130.07299652 7.63671875 121.88671875 C7.16911133 120.75919189 6.70150391 119.63166504 6.21972656 118.4699707 C5.38717941 116.4604124 4.55696421 114.44988581 3.72949219 112.43823242 C3.19630371 111.15009644 3.19630371 111.15009644 2.65234375 109.8359375 C2.35320068 109.10938965 2.05405762 108.3828418 1.74584961 107.63427734 C1.1138511 105.99728399 1.1138511 105.99728399 0 105 C-0.29132812 105.78238037 -0.58265625 106.56476074 -0.8828125 107.37084961 C-1.98252286 110.27596103 -3.11106206 113.16760896 -4.26025391 116.0534668 C-4.99188184 117.91682415 -5.689531 119.79340668 -6.38671875 121.66992188 C-6.85722656 122.83974609 -7.32773437 124.00957031 -7.8125 125.21484375 C-8.23144531 126.29886475 -8.65039062 127.38288574 -9.08203125 128.49975586 C-11 131 -11 131 -14.69921875 131.85546875 C-16.13141338 131.93503398 -17.56569952 131.9828475 -19 132 C-20.299375 132.03746338 -21.59875 132.07492676 -22.9375 132.11352539 C-24.29167699 132.11337044 -25.64586194 132.10792611 -27 132.09765625 C-27.7211499 132.0962413 -28.4422998 132.09482635 -29.18530273 132.09336853 C-31.45691324 132.08783381 -33.72842 132.07529423 -36 132.0625 C-37.55338398 132.05747654 -39.10676952 132.05291512 -40.66015625 132.04882812 C-44.44014328 132.03788589 -48.22005414 132.0206676 -52 132 C-50.15851086 125.54753559 -48.0620777 119.29768908 -45.54516602 113.07910156 C-45.04672935 111.83246231 -45.04672935 111.83246231 -44.53822327 110.56063843 C-43.44753398 107.83564377 -42.35076011 105.11314348 -41.25390625 102.390625 C-40.4794312 100.45911692 -39.70534527 98.52745279 -38.93162537 96.59564209 C-36.89330985 91.50936778 -34.849846 86.42517768 -32.80523682 81.34143066 C-30.76884368 76.27570146 -28.73709903 71.20810924 -26.70507812 66.140625 C-23.95456072 59.2823987 -21.20233154 52.4248649 -18.4476223 45.56832123 C-15.35808063 37.87824363 -12.27226187 30.18672651 -9.19873047 22.49023438 C-8.91164058 21.77147503 -8.62455069 21.05271568 -8.3287611 20.31217575 C-7.02113936 17.03788738 -5.71454599 13.76319419 -4.40956116 10.487854 C-3.96752853 9.38036804 -3.52549591 8.27288208 -3.07006836 7.13183594 C-2.6907164 6.17984314 -2.31136444 5.22785034 -1.92051697 4.24700928 C-1 2 -1 2 0 0 Z " fill="#54B8DE" transform="translate(64,7)"/>
<path d="M0 0 C3.23033384 2.65758994 4.33740624 5.78323764 5.86889648 9.61547852 C6.13993478 10.28754459 6.41097307 10.95961067 6.69022465 11.65204239 C7.59120763 13.89145485 8.4811128 16.13510111 9.37109375 18.37890625 C10.00734492 19.96663361 10.64428127 21.55408655 11.28186035 23.14128113 C12.98967789 27.39822376 14.68803841 31.6588805 16.38456345 35.92033386 C18.13521278 40.31329218 19.89428196 44.70287548 21.65258789 49.09277344 C24.4590977 56.10253476 27.26071045 63.11423271 30.05859375 70.12744141 C33.28130123 78.20492855 36.51487397 86.27799234 39.7564373 94.347929 C41.81825949 99.48136332 43.87762761 104.61578308 45.9375 109.75 C46.36118866 110.80542999 46.78487732 111.86085999 47.22140503 112.94827271 C48.38770307 115.85541612 49.55168525 118.76347429 50.71484375 121.671875 C51.22343933 122.93803902 51.22343933 122.93803902 51.74230957 124.2297821 C54 129.88520614 54 129.88520614 54 131 C40.14 131 26.28 131 12 131 C4.36333785 111.68744944 4.36333785 111.68744944 0.86164856 102.77832031 C-2.18148441 95.04485116 -5.25562665 87.32901945 -8.46202087 79.66159058 C-9.89970497 76.22108191 -11.31751583 72.77254323 -12.73410034 69.32330322 C-13.40740328 67.70065306 -14.09084298 66.08216937 -14.78469849 64.46820068 C-20.83176588 50.38813879 -20.83176588 50.38813879 -19.29296875 45.41015625 C-18.56027399 43.92408726 -17.79060823 42.45608423 -17 41 C-16.26100694 39.22702384 -15.52345249 37.45335779 -14.80551147 35.67175293 C-13.43419291 32.28394298 -11.99178711 28.92616064 -10.5625 25.5625 C-9.41654547 22.85606943 -8.27244821 20.14885696 -7.12890625 17.44140625 C-6.85615875 16.79644196 -6.58341125 16.15147766 -6.30239868 15.48696899 C-4.13515738 10.35056505 -2.03803325 5.18891451 0 0 Z " fill="#54B9DE" transform="translate(134,8)"/>
</svg>
